<svg width="800" height="800" viewBox="0 0 800 800" fill="none" xmlns="http://www.w3.org/2000/svg">
<path d="M659.453 165.156C656.641 162.031 653.75 158.984 650.859 156.016C608.828 112.734 555.625 80.3125 496.016 63.2812C484.219 59.9219 472.188 57.1875 459.922 55.0781C440.391 51.7187 420.391 50 400 50C301.562 50 212.578 90.625 148.984 156.094C146.094 159.063 143.203 162.109 140.391 165.234C84.2187 227.266 50 309.688 50 400C50 490.312 84.2188 572.578 140.313 634.688C143.125 637.813 145.938 640.859 148.906 643.828C191.016 687.187 244.297 719.688 304.063 736.719C315.859 740.078 327.891 742.812 340.156 744.922C359.609 748.281 379.609 750 400 750C420.391 750 440.391 748.281 459.922 744.922C472.188 742.812 484.219 740.078 496.016 736.719C555.781 719.766 608.984 687.266 651.094 643.906C653.984 640.859 656.875 637.891 659.688 634.766C715.781 572.656 750 490.312 750 400C750 309.609 715.703 227.266 659.453 165.156ZM715.547 406.406C714.766 446.797 706.484 485.937 690.859 522.891C677.266 555.078 658.594 584.453 635.313 610.391C632.578 613.516 629.687 616.563 626.797 619.531C625.625 620.781 624.375 621.953 623.203 623.203C594.219 652.188 560.469 675 522.891 690.859C494.922 702.656 465.781 710.312 435.703 713.672C425.938 714.766 416.172 715.391 406.25 715.547C404.219 715.625 402.109 715.625 400 715.625C397.891 715.625 395.859 715.625 393.75 715.547C383.906 715.391 374.062 714.766 364.297 713.672C334.297 710.312 305.078 702.656 277.109 690.859C239.531 674.922 205.781 652.188 176.797 623.203C175.547 621.953 174.297 620.703 173.125 619.453C170.234 616.484 167.344 613.359 164.609 610.313C141.328 584.375 122.734 555 109.141 522.891C93.5156 485.937 85.2344 446.797 84.4531 406.406H169.844C169.844 404.297 169.766 402.187 169.766 400C169.766 397.969 169.766 395.938 169.844 393.906H84.4531C85.2344 353.438 93.5156 314.219 109.219 277.187C122.813 245 141.484 215.547 164.844 189.609C167.578 186.484 170.469 183.437 173.359 180.469C174.531 179.297 175.703 178.047 176.875 176.875C205.859 147.891 239.609 125.078 277.187 109.219C305.156 97.4219 334.297 89.7656 364.375 86.4062C374.141 85.3125 383.906 84.6875 393.828 84.4531C395.938 84.375 397.969 84.375 400.078 84.375C402.187 84.375 404.219 84.375 406.328 84.4531C416.25 84.6094 426.016 85.3125 435.781 86.4062C465.781 89.7656 495 97.4219 522.891 109.219C560.469 125.078 594.219 147.891 623.203 176.875C624.375 178.047 625.547 179.219 626.641 180.391C629.531 183.359 632.422 186.406 635.156 189.531C658.516 215.547 677.187 244.922 690.859 277.187C706.484 314.219 714.844 353.438 715.547 393.906H630.156C630.156 395.938 630.234 397.969 630.234 400C630.234 402.109 630.234 404.219 630.156 406.406H715.547Z" fill="#00ACC1"/>
<path d="M617.734 400C617.734 402.109 617.734 404.219 617.656 406.406H406.25V519.453C404.141 519.375 402.031 519.375 399.922 519.375C397.891 519.375 395.781 519.375 393.75 519.453V406.406H182.344C182.266 404.297 182.266 402.187 182.266 400C182.266 397.969 182.266 395.938 182.344 393.906H393.75V280.312C395.781 280.312 397.891 280.391 399.922 280.391C402.031 280.391 404.141 280.391 406.25 280.312V393.906H617.656C617.656 395.938 617.734 397.969 617.734 400ZM406.25 86.7969V267.734C404.141 267.813 402.031 267.812 399.922 267.812C397.891 267.812 395.781 267.813 393.75 267.734V86.7969C395.859 85.9375 397.891 85.1562 400 84.375C402.109 85.1562 404.141 86.0156 406.25 86.7969ZM406.25 531.953V713.203C404.141 714.063 402.109 714.844 400 715.625C397.891 714.844 395.859 713.984 393.75 713.203V531.953C395.781 531.875 397.891 531.875 399.922 531.875C402.031 531.875 404.141 531.875 406.25 531.953Z" fill="#00ACC1"/>
<path d="M584.922 572.266C612.734 523.125 629.063 466.641 630.078 406.406C630.078 404.297 630.156 402.187 630.156 400C630.156 397.969 630.156 395.938 630.078 393.906C629.063 333.516 612.734 276.797 584.766 227.578C602.734 216.406 619.531 203.672 635.078 189.531C632.266 186.406 629.453 183.359 626.563 180.391C611.563 194.062 595.469 206.25 578.359 216.875C544.062 161.094 494.531 115.703 435.547 86.4062C425.781 85.3125 416.016 84.6875 406.094 84.4531C403.984 84.375 401.953 84.375 399.844 84.375C401.953 85.1562 403.984 86.0156 406.094 86.7969C407.891 87.5 409.609 88.2813 411.406 88.9844C451.562 106.016 487.656 130.312 518.672 161.328C537.5 180.156 553.828 200.859 567.656 223.203C555.938 229.922 543.75 236.016 531.172 241.328C491.484 258.125 449.453 267.031 406.172 267.812C404.063 267.891 401.953 267.891 399.844 267.891C397.812 267.891 395.703 267.891 393.672 267.812C350.312 267.031 308.203 258.125 268.438 241.328C255.938 236.016 243.75 230 232.031 223.281C245.781 200.937 262.188 180.156 281.016 161.328C312.031 130.312 348.125 106.016 388.281 88.9844C390.078 88.2813 391.797 87.5 393.594 86.7969C395.703 85.9375 397.734 85.1562 399.844 84.375C397.734 84.375 395.703 84.375 393.594 84.4531C383.672 84.6094 373.906 85.3125 364.141 86.4062C305.156 115.703 255.625 161.094 221.328 216.953C204.219 206.328 188.125 194.141 173.125 180.469C170.234 183.437 167.344 186.562 164.609 189.609C180.156 203.75 197.031 216.484 215 227.656C187.109 276.875 170.781 333.516 169.766 393.906C169.766 395.938 169.687 397.969 169.687 400C169.687 402.109 169.687 404.219 169.766 406.406C170.859 466.563 187.109 523.047 214.922 572.188C196.953 583.359 180.078 596.172 164.531 610.313C167.266 613.438 170.156 616.484 173.047 619.453C188.047 605.781 204.141 593.594 221.25 582.891C255.547 638.828 305.156 684.297 364.219 713.672C373.984 714.766 383.75 715.391 393.672 715.547C395.781 715.625 397.812 715.625 399.922 715.625C397.812 714.844 395.781 713.984 393.672 713.203C391.875 712.5 390.156 711.719 388.359 711.016C348.203 693.984 312.109 669.688 281.094 638.672C262.187 619.766 245.781 598.984 232.031 576.562C243.75 569.844 255.938 563.75 268.516 558.437C308.203 541.641 350.312 532.734 393.75 531.953C395.781 531.875 397.891 531.875 399.922 531.875C402.031 531.875 404.141 531.875 406.25 531.953C449.609 532.734 491.641 541.641 531.25 558.437C543.906 563.75 556.094 569.844 567.891 576.641C554.141 599.062 537.734 619.844 518.828 638.75C487.812 669.766 451.719 694.063 411.562 711.094C409.766 711.875 408.047 712.578 406.25 713.281C404.141 714.141 402.109 714.922 400 715.703C402.109 715.703 404.141 715.703 406.25 715.625C416.172 715.469 425.938 714.844 435.703 713.75C494.766 684.453 544.297 638.984 578.594 583.047C595.625 593.672 611.797 605.937 626.797 619.609C629.687 616.641 632.5 613.594 635.312 610.469C619.766 596.172 602.891 583.438 584.922 572.266ZM406.25 519.453C404.141 519.375 402.031 519.375 399.922 519.375C397.891 519.375 395.781 519.375 393.75 519.453C332.656 520.547 275.391 537.266 225.703 565.781C219.453 554.688 213.828 543.203 208.828 531.406C192.031 491.719 183.125 449.766 182.344 406.406C182.266 404.297 182.266 402.187 182.266 400C182.266 397.969 182.266 395.938 182.344 393.906C183.125 350.469 192.031 308.359 208.828 268.672C213.828 256.797 219.531 245.234 225.859 234.063C275.469 262.578 332.734 279.297 393.75 280.312C395.781 280.312 397.891 280.391 399.922 280.391C402.031 280.391 404.141 280.391 406.25 280.312C467.266 279.219 524.531 262.5 574.141 233.984C580.469 245.156 586.172 256.719 591.172 268.672C607.969 308.437 616.875 350.547 617.656 393.906C617.656 395.938 617.734 397.969 617.734 400C617.734 402.109 617.734 404.219 617.656 406.406C616.875 449.688 607.969 491.719 591.172 531.406C586.172 543.281 580.547 554.766 574.219 565.859C524.609 537.266 467.344 520.547 406.25 519.453Z" fill="#00ACC1"/>
<path d="M266.9 482V311.9H320.45V482H266.9ZM375.75 482V382.6C375.75 373.967 373.067 367.317 367.7 362.65C362.567 357.75 356.15 355.3 348.45 355.3C343.083 355.3 338.3 356.467 334.1 358.8C329.9 360.9 326.517 363.933 323.95 367.9C321.617 371.867 320.45 376.767 320.45 382.6L299.8 373.5C299.8 359.967 302.717 348.417 308.55 338.85C314.383 329.05 322.317 321.583 332.35 316.45C342.383 311.083 353.7 308.4 366.3 308.4C378.2 308.4 388.817 311.083 398.15 316.45C407.717 321.817 415.3 329.283 420.9 338.85C426.5 348.417 429.3 359.85 429.3 373.15V482H375.75ZM484.6 482V382.6C484.6 373.967 481.917 367.317 476.55 362.65C471.417 357.75 465 355.3 457.3 355.3C451.933 355.3 447.15 356.467 442.95 358.8C438.75 360.9 435.367 363.933 432.8 367.9C430.467 371.867 429.3 376.767 429.3 382.6L398.5 378.4C398.967 363.933 402.35 351.567 408.65 341.3C415.183 330.8 423.7 322.75 434.2 317.15C444.933 311.317 456.95 308.4 470.25 308.4C483.317 308.4 494.867 311.2 504.9 316.8C515.167 322.167 523.217 329.983 529.05 340.25C535.117 350.283 538.15 362.417 538.15 376.65V482H484.6Z" fill="#00B4A2"/>
</svg>
