<svg width="30" height="30" viewBox="0 0 30 30" fill="none" xmlns="http://www.w3.org/2000/svg">
<circle cx="15" cy="15" r="14.5" stroke="#33C3B5"/>
<path d="M14.072 23.264C12.904 23.264 11.832 23.064 10.856 22.664C9.88 22.248 9.056 21.656 8.384 20.888L10.808 18.464C11.112 18.912 11.552 19.28 12.128 19.568C12.72 19.84 13.344 19.976 14 19.976C14.592 19.976 15.104 19.872 15.536 19.664C15.968 19.456 16.304 19.16 16.544 18.776C16.8 18.392 16.928 17.936 16.928 17.408C16.928 16.88 16.8 16.432 16.544 16.064C16.304 15.68 15.944 15.384 15.464 15.176C15 14.968 14.44 14.864 13.784 14.864C13.48 14.864 13.16 14.888 12.824 14.936C12.504 14.968 12.232 15.024 12.008 15.104L13.664 13.016C14.112 12.888 14.536 12.784 14.936 12.704C15.352 12.608 15.736 12.56 16.088 12.56C16.952 12.56 17.728 12.768 18.416 13.184C19.104 13.584 19.648 14.16 20.048 14.912C20.464 15.648 20.672 16.528 20.672 17.552C20.672 18.672 20.392 19.664 19.832 20.528C19.288 21.392 18.52 22.064 17.528 22.544C16.552 23.024 15.4 23.264 14.072 23.264ZM12.008 15.104V13.016L16.136 8.168L20.36 8.144L16.064 13.04L12.008 15.104ZM9.44 9.248V6.056H20.36V8.144L17.408 9.248H9.44Z" fill="#00B4A2"/>
</svg>
