<svg width="142" height="19" viewBox="0 0 142 19" fill="none" xmlns="http://www.w3.org/2000/svg">
<path d="M0.296 18V6.336H3.968V18H0.296ZM7.76 18V11.184C7.76 10.592 7.576 10.136 7.208 9.816C6.856 9.48 6.416 9.312 5.888 9.312C5.52 9.312 5.192 9.392 4.904 9.552C4.616 9.696 4.384 9.904 4.208 10.176C4.048 10.448 3.968 10.784 3.968 11.184L2.552 10.56C2.552 9.632 2.752 8.84 3.152 8.184C3.552 7.512 4.096 7 4.784 6.648C5.472 6.28 6.248 6.096 7.112 6.096C7.928 6.096 8.656 6.28 9.296 6.648C9.952 7.016 10.472 7.528 10.856 8.184C11.24 8.84 11.432 9.624 11.432 10.536V18H7.76ZM15.224 18V11.184C15.224 10.592 15.04 10.136 14.672 9.816C14.32 9.48 13.88 9.312 13.352 9.312C12.984 9.312 12.656 9.392 12.368 9.552C12.08 9.696 11.848 9.904 11.672 10.176C11.512 10.448 11.432 10.784 11.432 11.184L9.32 10.896C9.352 9.904 9.584 9.056 10.016 8.352C10.464 7.632 11.048 7.08 11.768 6.696C12.504 6.296 13.328 6.096 14.24 6.096C15.136 6.096 15.928 6.288 16.616 6.672C17.32 7.04 17.872 7.576 18.272 8.28C18.688 8.968 18.896 9.8 18.896 10.776V18H15.224ZM26.8651 18.264C25.6651 18.264 24.5771 18 23.6011 17.472C22.6411 16.928 21.8811 16.192 21.3211 15.264C20.7611 14.336 20.4811 13.296 20.4811 12.144C20.4811 10.992 20.7611 9.96 21.3211 9.048C21.8811 8.136 22.6411 7.416 23.6011 6.888C24.5611 6.344 25.6491 6.072 26.8651 6.072C28.0811 6.072 29.1691 6.336 30.1291 6.864C31.0891 7.392 31.8491 8.12 32.4091 9.048C32.9691 9.96 33.2491 10.992 33.2491 12.144C33.2491 13.296 32.9691 14.336 32.4091 15.264C31.8491 16.192 31.0891 16.928 30.1291 17.472C29.1691 18 28.0811 18.264 26.8651 18.264ZM26.8651 14.928C27.3931 14.928 27.8571 14.816 28.2571 14.592C28.6571 14.352 28.9611 14.024 29.1691 13.608C29.3931 13.176 29.5051 12.688 29.5051 12.144C29.5051 11.6 29.3931 11.128 29.1691 10.728C28.9451 10.312 28.6331 9.992 28.2331 9.768C27.8491 9.528 27.3931 9.408 26.8651 9.408C26.3531 9.408 25.8971 9.528 25.4971 9.768C25.0971 9.992 24.7851 10.312 24.5611 10.728C24.3371 11.144 24.2251 11.624 24.2251 12.168C24.2251 12.696 24.3371 13.176 24.5611 13.608C24.7851 14.024 25.0971 14.352 25.4971 14.592C25.8971 14.816 26.3531 14.928 26.8651 14.928ZM35.0773 18V0.576H38.7493V18H35.0773ZM46.3031 18.24C45.1991 18.24 44.2151 17.976 43.3511 17.448C42.5031 16.92 41.8311 16.2 41.3351 15.288C40.8551 14.376 40.6151 13.336 40.6151 12.168C40.6151 11 40.8551 9.96 41.3351 9.048C41.8311 8.136 42.5031 7.416 43.3511 6.888C44.2151 6.36 45.1991 6.096 46.3031 6.096C47.1031 6.096 47.8231 6.248 48.4631 6.552C49.1191 6.856 49.6551 7.28 50.0711 7.824C50.5031 8.352 50.7431 8.96 50.7911 9.648V14.568C50.7431 15.256 50.5111 15.88 50.0951 16.44C49.6791 16.984 49.1431 17.424 48.4871 17.76C47.8311 18.08 47.1031 18.24 46.3031 18.24ZM46.9511 14.928C47.4791 14.928 47.9351 14.816 48.3191 14.592C48.7031 14.352 49.0071 14.024 49.2311 13.608C49.4551 13.192 49.5671 12.712 49.5671 12.168C49.5671 11.624 49.4551 11.152 49.2311 10.752C49.0231 10.336 48.7191 10.008 48.3191 9.768C47.9351 9.528 47.4871 9.408 46.9751 9.408C46.4631 9.408 46.0071 9.528 45.6071 9.768C45.2231 10.008 44.9111 10.336 44.6711 10.752C44.4471 11.168 44.3351 11.64 44.3351 12.168C44.3351 12.696 44.4471 13.168 44.6711 13.584C44.8951 14 45.2071 14.328 45.6071 14.568C46.0071 14.808 46.4551 14.928 46.9511 14.928ZM53.0231 18H49.4231V14.856L49.9751 12.024L49.3511 9.192V0.576H53.0231V18ZM61.2485 18.264C60.0485 18.264 58.9605 18 57.9845 17.472C57.0085 16.944 56.2405 16.216 55.6805 15.288C55.1205 14.36 54.8405 13.32 54.8405 12.168C54.8405 11 55.1205 9.96 55.6805 9.048C56.2565 8.12 57.0325 7.392 58.0085 6.864C58.9845 6.336 60.0805 6.072 61.2965 6.072C62.2085 6.072 63.0405 6.232 63.7925 6.552C64.5605 6.856 65.2405 7.32 65.8325 7.944L63.4805 10.296C63.2085 9.992 62.8885 9.768 62.5205 9.624C62.1685 9.48 61.7605 9.408 61.2965 9.408C60.7685 9.408 60.2965 9.528 59.8805 9.768C59.4805 9.992 59.1605 10.312 58.9205 10.728C58.6965 11.128 58.5845 11.6 58.5845 12.144C58.5845 12.688 58.6965 13.168 58.9205 13.584C59.1605 14 59.4885 14.328 59.9045 14.568C60.3205 14.808 60.7845 14.928 61.2965 14.928C61.7765 14.928 62.2005 14.848 62.5685 14.688C62.9525 14.512 63.2805 14.272 63.5525 13.968L65.8805 16.32C65.2725 16.96 64.5845 17.448 63.8165 17.784C63.0485 18.104 62.1925 18.264 61.2485 18.264ZM72.8495 18.264C71.6495 18.264 70.5615 18 69.5855 17.472C68.6255 16.928 67.8655 16.192 67.3055 15.264C66.7455 14.336 66.4655 13.296 66.4655 12.144C66.4655 10.992 66.7455 9.96 67.3055 9.048C67.8655 8.136 68.6255 7.416 69.5855 6.888C70.5455 6.344 71.6335 6.072 72.8495 6.072C74.0655 6.072 75.1535 6.336 76.1135 6.864C77.0735 7.392 77.8335 8.12 78.3935 9.048C78.9535 9.96 79.2335 10.992 79.2335 12.144C79.2335 13.296 78.9535 14.336 78.3935 15.264C77.8335 16.192 77.0735 16.928 76.1135 17.472C75.1535 18 74.0655 18.264 72.8495 18.264ZM72.8495 14.928C73.3775 14.928 73.8415 14.816 74.2415 14.592C74.6415 14.352 74.9455 14.024 75.1535 13.608C75.3775 13.176 75.4895 12.688 75.4895 12.144C75.4895 11.6 75.3775 11.128 75.1535 10.728C74.9295 10.312 74.6175 9.992 74.2175 9.768C73.8335 9.528 73.3775 9.408 72.8495 9.408C72.3375 9.408 71.8815 9.528 71.4815 9.768C71.0815 9.992 70.7695 10.312 70.5455 10.728C70.3215 11.144 70.2095 11.624 70.2095 12.168C70.2095 12.696 70.3215 13.176 70.5455 13.608C70.7695 14.024 71.0815 14.352 71.4815 14.592C71.8815 14.816 72.3375 14.928 72.8495 14.928ZM88.7656 18V11.352C88.7656 10.744 88.5736 10.256 88.1896 9.888C87.8216 9.504 87.3496 9.312 86.7736 9.312C86.3736 9.312 86.0216 9.4 85.7176 9.576C85.4136 9.736 85.1736 9.976 84.9976 10.296C84.8216 10.6 84.7336 10.952 84.7336 11.352L83.3176 10.656C83.3176 9.744 83.5176 8.944 83.9176 8.256C84.3176 7.568 84.8696 7.04 85.5736 6.672C86.2936 6.288 87.1016 6.096 87.9976 6.096C88.8616 6.096 89.6216 6.304 90.2776 6.72C90.9496 7.12 91.4776 7.656 91.8616 8.328C92.2456 9 92.4376 9.736 92.4376 10.536V18H88.7656ZM81.0616 18V6.336H84.7336V18H81.0616ZM102.5 18V11.352C102.5 10.744 102.308 10.256 101.924 9.888C101.556 9.504 101.084 9.312 100.508 9.312C100.108 9.312 99.756 9.4 99.452 9.576C99.148 9.736 98.908 9.976 98.732 10.296C98.556 10.6 98.468 10.952 98.468 11.352L97.052 10.656C97.052 9.744 97.252 8.944 97.652 8.256C98.052 7.568 98.604 7.04 99.308 6.672C100.028 6.288 100.836 6.096 101.732 6.096C102.596 6.096 103.356 6.304 104.012 6.72C104.684 7.12 105.212 7.656 105.596 8.328C105.98 9 106.172 9.736 106.172 10.536V18H102.5ZM94.796 18V6.336H98.468V18H94.796ZM114.29 18.264C113.026 18.264 111.898 18.008 110.906 17.496C109.93 16.968 109.162 16.24 108.602 15.312C108.042 14.384 107.762 13.336 107.762 12.168C107.762 11 108.034 9.96 108.578 9.048C109.138 8.12 109.89 7.392 110.834 6.864C111.778 6.336 112.842 6.072 114.026 6.072C115.178 6.072 116.194 6.32 117.074 6.816C117.954 7.312 118.642 8 119.138 8.88C119.65 9.76 119.906 10.768 119.906 11.904C119.906 12.112 119.89 12.336 119.858 12.576C119.842 12.8 119.802 13.064 119.738 13.368L109.682 13.392V10.872L118.178 10.848L116.594 11.904C116.578 11.232 116.474 10.68 116.282 10.248C116.09 9.8 115.802 9.464 115.418 9.24C115.05 9 114.594 8.88 114.05 8.88C113.474 8.88 112.97 9.016 112.538 9.288C112.122 9.544 111.794 9.912 111.554 10.392C111.33 10.872 111.218 11.456 111.218 12.144C111.218 12.832 111.338 13.424 111.578 13.92C111.834 14.4 112.186 14.776 112.634 15.048C113.098 15.304 113.642 15.432 114.266 15.432C114.842 15.432 115.362 15.336 115.826 15.144C116.29 14.936 116.698 14.632 117.05 14.232L119.066 16.248C118.49 16.92 117.794 17.424 116.978 17.76C116.162 18.096 115.266 18.264 114.29 18.264ZM127.319 18.264C126.119 18.264 125.031 18 124.055 17.472C123.079 16.944 122.311 16.216 121.751 15.288C121.191 14.36 120.911 13.32 120.911 12.168C120.911 11 121.191 9.96 121.751 9.048C122.327 8.12 123.103 7.392 124.079 6.864C125.055 6.336 126.151 6.072 127.367 6.072C128.279 6.072 129.111 6.232 129.863 6.552C130.631 6.856 131.311 7.32 131.903 7.944L129.551 10.296C129.279 9.992 128.959 9.768 128.591 9.624C128.239 9.48 127.831 9.408 127.367 9.408C126.839 9.408 126.367 9.528 125.951 9.768C125.551 9.992 125.231 10.312 124.991 10.728C124.767 11.128 124.655 11.6 124.655 12.144C124.655 12.688 124.767 13.168 124.991 13.584C125.231 14 125.559 14.328 125.975 14.568C126.391 14.808 126.855 14.928 127.367 14.928C127.847 14.928 128.271 14.848 128.639 14.688C129.023 14.512 129.351 14.272 129.623 13.968L131.951 16.32C131.343 16.96 130.655 17.448 129.887 17.784C129.119 18.104 128.263 18.264 127.319 18.264ZM135.054 18V1.512H138.726V18H135.054ZM132.414 9.456V6.336H141.366V9.456H132.414Z" fill="#00B4A2"/>
</svg>
