<svg width="30" height="30" viewBox="0 0 30 30" fill="none" xmlns="http://www.w3.org/2000/svg">
<circle cx="15" cy="15" r="14.5" stroke="#33C3B5"/>
<path d="M8.576 20.888L15.08 14.168C15.48 13.768 15.8 13.4 16.04 13.064C16.28 12.728 16.456 12.416 16.568 12.128C16.68 11.824 16.736 11.52 16.736 11.216C16.736 10.56 16.52 10.048 16.088 9.68C15.672 9.296 15.12 9.104 14.432 9.104C13.76 9.104 13.152 9.288 12.608 9.656C12.08 10.008 11.568 10.592 11.072 11.408L8.552 9.224C9.224 8.088 10.08 7.232 11.12 6.656C12.16 6.08 13.352 5.792 14.696 5.792C15.864 5.792 16.872 6.008 17.72 6.44C18.584 6.872 19.248 7.488 19.712 8.288C20.192 9.088 20.432 10.024 20.432 11.096C20.432 11.768 20.344 12.392 20.168 12.968C19.992 13.528 19.704 14.088 19.304 14.648C18.92 15.192 18.4 15.792 17.744 16.448L13.232 20.936L8.576 20.888ZM8.576 23V20.888L11.768 19.784H20.768V23H8.576Z" fill="#00B4A2"/>
</svg>
